<svg width="71" height="71" viewBox="0 0 71 71" fill="none" xmlns="http://www.w3.org/2000/svg">
<path d="M64.7776 34.9255C62.7337 34.5542 60.6713 34.2929 58.5994 34.1426C53.4434 33.7739 48.2612 34.0882 43.1875 35.0772C45.9185 38.1117 48.1245 40.5392 49.5598 42.1626C52.039 44.9574 58.5205 52.3068 60.9086 54.6918C63.0327 56.8159 64.0129 57.8537 64.468 58.3332C67.1839 61.1279 68.6889 62.6755 69.6418 62.3083C70.5946 61.9411 70.6462 59.6137 70.5824 58.1693C70.4429 55.1258 69.663 48.2588 64.7776 34.9255Z" fill="url(#paint0_linear_1523_2)"/>
<path d="M35.2951 35.2928C36.7955 32.2261 38.6831 29.3645 40.9119 26.7782C44.972 22.0779 47.2569 21.7046 47.8911 21.6197C49.9242 21.3708 51.6629 22.0961 52.7189 22.6726C54.3999 23.7623 55.9947 24.9797 57.489 26.3139C60.3146 28.8239 62.7669 31.7248 64.7717 34.9287C54.9113 33.1439 44.7574 33.9298 35.2891 37.2106L35.2951 35.2928Z" fill="#F18919"/>
<path d="M34.943 5.80122C34.5093 8.22687 34.2296 10.6775 34.1055 13.1385C33.8656 18.03 34.2315 22.9324 35.1948 27.7342C37.4707 25.5089 39.8042 23.2735 42.1953 21.028C46.399 17.0711 50.5703 13.2933 54.7093 9.69441C56.8334 7.5703 57.8712 6.58714 58.3355 6.13501C61.1302 3.40401 62.6778 1.91107 62.3136 0.958252C61.9495 0.00543743 59.616 -0.0431136 58.1747 0.0175753C55.1432 0.135918 48.2763 0.91577 34.943 5.80122Z" fill="url(#paint1_linear_1523_2)"/>
<path d="M35.3285 35.2715C32.2617 33.7711 29.4001 31.8835 26.8138 29.6547C22.1135 25.5947 21.7403 23.3097 21.6553 22.6755C21.4938 20.9958 21.862 19.3076 22.7082 17.8477C23.797 16.166 25.0144 14.5712 26.3496 13.0776C28.8595 10.252 31.7605 7.79967 34.9643 5.79492C33.1754 15.6551 33.9614 25.8101 37.2462 35.2776L35.3285 35.2715Z" fill="#5EC0C6"/>
<path d="M35.6837 64.7668C36.1355 62.2544 36.4233 59.7153 36.5454 57.1655C36.7655 52.4786 36.4232 47.7822 35.5259 43.1768C32.4914 45.9078 30.0639 48.1138 28.4435 49.5491C25.6336 52.0404 18.2993 58.5098 15.9143 60.8949C13.7902 63.019 12.7524 64.0021 12.2729 64.4543C9.47823 67.1701 7.93066 68.6782 8.2948 69.6128C8.67713 70.6081 10.9924 70.6172 12.4368 70.5565C15.4712 70.4321 22.3473 69.6492 35.6837 64.7668Z" fill="url(#paint2_linear_1523_2)"/>
<path d="M5.81245 35.6537C8.03224 36.0556 10.2734 36.3291 12.5246 36.473C17.502 36.7825 22.4985 36.4562 27.3934 35.502C25.2794 33.1453 23.1553 30.7835 21.0211 28.4166C17.2462 24.2129 13.4744 20.0365 9.70564 15.8874C7.58153 13.7633 6.59837 12.7255 6.14624 12.2612C3.41524 9.46651 1.92229 7.91894 0.96948 8.28308C0.0166655 8.64721 -0.0440233 10.9807 0.0166655 12.4251C0.147146 15.4595 0.926998 22.3204 5.81245 35.6537Z" fill="url(#paint3_linear_1523_2)"/>
<path d="M35.2949 35.2869C33.7946 38.3537 31.9069 41.2153 29.6782 43.8015C25.6181 48.5019 23.3332 48.8751 22.699 48.9601C20.6659 49.2089 18.9271 48.4837 17.8712 47.9071C16.1908 46.8164 14.5962 45.5991 13.101 44.2658C10.2746 41.7555 7.82217 38.8535 5.81836 35.648C11.1382 36.6118 16.5661 36.8314 21.9464 36.3004C26.4965 35.8506 30.9779 34.8668 35.298 33.3691L35.2949 35.2869Z" fill="#FCE155"/>
<path d="M35.3103 35.2843C38.3771 36.7846 41.2387 38.6723 43.825 40.901C48.5253 44.9611 48.8986 47.2461 48.9835 47.8802C49.2324 49.9133 48.5071 51.6521 47.9306 52.708C46.8399 54.3884 45.6226 55.983 44.2893 57.4782C41.779 60.3046 38.8769 62.757 35.6714 64.7608C36.6353 59.441 36.8548 54.0131 36.3238 48.6328C35.8741 44.0827 34.8902 39.6013 33.3926 35.2812L35.3103 35.2843Z" fill="#3780C3"/>
<path d="M35.295 43.1828C39.6557 43.1828 43.1906 39.6478 43.1906 35.2872C43.1906 30.9266 39.6557 27.3916 35.295 27.3916C30.9344 27.3916 27.3994 30.9266 27.3994 35.2872C27.3994 39.6478 30.9344 43.1828 35.295 43.1828Z" fill="#4364AD"/>
<defs>
<linearGradient id="paint0_linear_1523_2" x1="56.891" y1="35.7842" x2="56.891" y2="64.1411" gradientUnits="userSpaceOnUse">
<stop stop-color="#E7651C"/>
<stop offset="0.21" stop-color="#E96C1B"/>
<stop offset="0.51" stop-color="#EF811A"/>
<stop offset="0.6" stop-color="#F18919"/>
<stop offset="1" stop-color="#F18919"/>
</linearGradient>
<linearGradient id="paint1_linear_1523_2" x1="35.9292" y1="13.8577" x2="64.2648" y2="13.8577" gradientUnits="userSpaceOnUse">
<stop stop-color="#00959B"/>
<stop offset="0.14" stop-color="#169FA5"/>
<stop offset="0.42" stop-color="#4DB8BE"/>
<stop offset="0.5" stop-color="#5EC0C6"/>
<stop offset="1" stop-color="#5EC0C6"/>
</linearGradient>
<linearGradient id="paint2_linear_1523_2" x1="32.3488" y1="56.8803" x2="3.99499" y2="56.8803" gradientUnits="userSpaceOnUse">
<stop stop-color="#2E64A2"/>
<stop offset="0.46" stop-color="#3780C3"/>
<stop offset="1" stop-color="#3780C3"/>
</linearGradient>
<linearGradient id="paint3_linear_1523_2" x1="13.699" y1="33.1716" x2="13.699" y2="4.81471" gradientUnits="userSpaceOnUse">
<stop offset="0.08" stop-color="#FDC300"/>
<stop offset="0.5" stop-color="#FCD73A"/>
<stop offset="0.68" stop-color="#FCE155"/>
<stop offset="1" stop-color="#FCE155"/>
</linearGradient>
</defs>
</svg>
